<svg width="22" height="32" viewBox="0 0 22 32" fill="none" xmlns="http://www.w3.org/2000/svg">
<path id="Vector" d="M0 0L5.21354 12.2778C2.08963 14.1617 0 17.5116 0 21.3333C0 27.2142 4.93411 32 11 32C17.0659 32 22 27.2142 22 21.3333C22 17.5116 19.9104 14.1617 16.7865 12.2778L22 0H19.3574L14.576 11.2569C13.7727 10.9881 12.9322 10.8012 12.0575 10.7199L16.6074 0H13.9648L9.37912 10.7963C8.70535 10.8934 8.05245 11.0466 7.42405 11.2569L2.64258 0H0ZM5.39258 0L8.49826 7.31713L9.82075 4.2037L8.03516 0H5.39258ZM11 13.037C15.7166 13.037 19.5556 16.7585 19.5556 21.3333C19.5556 25.9081 15.7166 29.6296 11 29.6296C6.28344 29.6296 2.44444 25.9081 2.44444 21.3333C2.44444 16.7585 6.28344 13.037 11 13.037ZM11 16.7847L9.57248 19.8889L6.11111 20.2569L8.70117 22.5139L7.97309 25.8449L11 24.1505L14.0269 25.8449L13.2988 22.5139L15.8889 20.2569L12.4275 19.8889L11 16.7847Z" fill="#1B1B1B"/>
</svg>
