<svg width="31" height="33" viewBox="0 0 31 33" fill="none" xmlns="http://www.w3.org/2000/svg">
<path id="Vector" d="M28.3307 0.166626C27.5002 0.166626 26.3431 0.205367 25.1207 0.32159C22.6758 0.558877 19.853 0.985028 18.1033 2.80101C16.6336 4.32643 13.5961 8.37486 10.7873 12.1763C10.2321 12.9269 10.2554 12.9124 9.74219 13.6097L7.68924 13.4935C6.16352 13.4112 4.69379 14.0795 3.73264 15.3143L1.23177 18.4911L0 20.1182L1.94097 20.5056L5.86024 21.3192L10.4514 26.0843L11.2352 30.1521L11.6458 32.1666L13.1762 30.8882L16.237 28.2925C17.4268 27.295 18.0706 25.7695 17.9913 24.186L17.8793 22.094C18.5745 21.5468 18.5512 21.5613 19.2977 20.9705C22.9697 18.0504 26.8843 14.9172 28.3307 13.416C30.0664 11.6146 30.4537 8.6412 30.6823 6.09399C30.9109 3.54677 30.7943 1.36759 30.7943 1.36759L30.7569 0.244108L29.6745 0.205367C29.6745 0.205367 29.1612 0.166626 28.3307 0.166626ZM27.2483 2.64604C27.7242 2.64604 28.0601 2.6751 28.4054 2.68479C28.4194 3.40634 28.4474 4.15694 28.2934 5.86154C28.0834 8.21021 27.3929 10.8252 26.6137 11.6339C25.5499 12.7381 21.5 16.0843 17.842 18.9947C14.6086 21.5661 12.3317 23.3724 11.6832 23.8761L8.02517 20.0795C8.51508 19.3967 10.1901 17.0238 12.6536 13.6872C15.4531 9.90028 18.6865 5.68236 19.783 4.54435C20.5995 3.69689 23.091 2.98019 25.3446 2.76227C26.1611 2.68479 26.7724 2.64604 27.2483 2.64604ZM21.7986 7.02377C20.4642 7.02377 19.4097 8.15694 19.4097 9.54193C19.4097 10.9269 20.4642 12.0601 21.7986 12.0601C23.133 12.0601 24.2248 10.9269 24.2248 9.54193C24.2248 8.15694 23.133 7.02377 21.7986 7.02377ZM7.53993 15.9729L7.98785 16.0117C7.26931 16.9996 6.09353 18.5831 5.9349 18.801L4.32986 18.4523L5.56163 16.9027C6.04221 16.2877 6.77474 15.9293 7.53993 15.9729ZM4.8151 22.4039C3.79329 23.4644 3.21007 24.9318 2.79948 26.1618C2.38889 27.3918 2.20226 28.4088 2.20226 28.4088L1.82899 30.2296L3.58333 29.8809C3.58333 29.8809 4.53516 29.7114 5.71094 29.2998C6.88672 28.8882 8.30046 28.278 9.36892 27.169L7.68924 25.4257C7.15734 25.9778 6.10286 26.462 5.15104 26.8204C5.51497 25.7889 6.04688 24.617 6.49479 24.1473L4.8151 22.4039ZM15.5651 23.8761L15.6024 24.341C15.6444 25.1351 15.3411 25.8954 14.7439 26.3942L13.2135 27.6727L12.8776 26.0068C13.0876 25.847 14.6133 24.617 15.5651 23.8761Z" fill="#1B1B1B"/>
</svg>
