<svg width="17" height="33" viewBox="0 0 17 33" fill="none" xmlns="http://www.w3.org/2000/svg">
<path id="Vector" d="M9.77778 0.833374C7.42882 0.833374 5.5 2.93754 5.5 5.50004C5.5 8.06254 7.42882 10.1667 9.77778 10.1667C12.1267 10.1667 14.0556 8.06254 14.0556 5.50004C14.0556 2.93754 12.1267 0.833374 9.77778 0.833374ZM9.77778 3.50004C10.8043 3.50004 11.6111 4.38025 11.6111 5.50004C11.6111 6.61983 10.8043 7.50004 9.77778 7.50004C8.7513 7.50004 7.94445 6.61983 7.94445 5.50004C7.94445 4.38025 8.7513 3.50004 9.77778 3.50004ZM5.27083 10.5C4.64063 10.5573 4.05339 10.8855 3.62847 11.4167L1.41319 14.2084C1.12196 14.573 0.916667 15.0209 0.840278 15.5L0 20.6667L2.40625 21.125L3.24653 15.9584L5.46181 13.1667H5.5L6.45486 13.375L5.00347 20.5417C4.85547 21.2865 5.01302 22.0521 5.42361 22.6667L12.184 32.8334H15.2014L7.40972 21.0834L8.86111 13.875L9.43403 14L10.3507 17.5C10.5655 18.3021 11.1194 18.9532 11.8403 19.25L16.1563 21.0417L16.9965 18.5417L12.7188 16.75L11.7639 13.25C11.5109 12.2865 10.7947 11.5625 9.89236 11.375L5.92014 10.5417C5.71007 10.5 5.4809 10.4792 5.27083 10.5ZM4.85069 24.875L4.23958 27.4584L0.6875 32.8334H3.70486L6.53125 28.625L6.68403 27.8334L4.85069 24.875Z" fill="#1B1B1B"/>
</svg>
